<svg width="15" height="16" viewBox="0 0 15 16" fill="none" xmlns="http://www.w3.org/2000/svg">
<path d="M6.79335 3.69659C5.77103 2.67174 4.48709 2.58545 3.59413 3.48231C2.70116 4.3782 2.78611 5.66968 3.80651 6.6955L9.33227 12.2454C9.42331 12.3337 9.54523 12.3825 9.67179 12.3814C9.79835 12.3803 9.91941 12.3293 10.0089 12.2395C10.0984 12.1496 10.1492 12.028 10.1503 11.9009C10.1514 11.7738 10.1027 11.6513 10.0148 11.5599L4.48902 6.01C3.99379 5.51261 3.67811 4.76797 4.27568 4.1678C4.87227 3.56763 5.61464 3.88566 6.10987 4.38305L12.2535 10.5525C14.0153 12.3239 14.4545 13.1403 13.4052 14.1952C12.3433 15.2608 11.2176 14.997 9.52245 13.2954L2.6973 6.43856C1.59485 5.3313 0.822556 3.52303 2.27157 2.06866C3.99186 0.340873 5.95638 2.03958 6.51629 2.6029L12.7873 8.90226C12.8784 8.99057 13.0003 9.03943 13.1268 9.03833C13.2534 9.03722 13.3745 8.98624 13.464 8.89635C13.5534 8.80647 13.6042 8.68488 13.6053 8.55777C13.6064 8.43066 13.5578 8.3082 13.4698 8.21677L7.19881 1.91741C5.30283 0.0131556 3.15295 -0.190456 1.58809 1.38317C0.00682068 2.97037 0.177691 5.27797 2.01479 7.12405L8.8409 13.9799C9.42109 14.5627 10.6635 15.8095 12.0923 15.8095C12.7342 15.8095 13.4148 15.5565 14.0886 14.8797C16.0068 12.9522 14.2325 11.1682 12.937 9.86602L6.79335 3.69659Z" fill="#888888"/>
</svg>
