<svg width="13" height="15" viewBox="0 0 13 15" fill="none" xmlns="http://www.w3.org/2000/svg">
<path d="M6.50022 15C5.23193 14.9998 3.99141 14.5941 2.93144 13.833C1.87147 13.0719 1.03834 11.9886 0.534665 10.7165C0.0309897 9.44436 -0.121233 8.03903 0.0967443 6.67357C0.314722 5.3081 0.89338 4.04213 1.76145 3.03158C1.82643 2.9559 1.90441 2.89494 1.99095 2.8522C2.07749 2.80945 2.17088 2.78575 2.26579 2.78246C2.36071 2.77916 2.45529 2.79632 2.54414 2.83297C2.63299 2.86962 2.71436 2.92504 2.78361 2.99605C2.85286 3.06707 2.90863 3.1523 2.94774 3.24687C2.98685 3.34145 3.00854 3.44351 3.01156 3.54725C3.01457 3.65098 2.99887 3.75435 2.96533 3.85145C2.9318 3.94855 2.88109 4.03748 2.81611 4.11316C1.93085 5.13402 1.43934 6.48826 1.4436 7.89474C1.44422 8.79616 1.64659 9.68374 2.03307 10.4801C2.41955 11.2764 2.97841 11.9574 3.66092 12.4635C4.34343 12.9697 5.12887 13.2857 5.94876 13.384C6.76865 13.4823 7.5981 13.3599 8.36479 13.0275C9.13148 12.6951 9.81213 12.1628 10.3474 11.477C10.8827 10.7912 11.2563 9.97264 11.4357 9.0928C11.6152 8.21296 11.5949 7.29851 11.3768 6.42918C11.1587 5.55984 10.7493 4.76202 10.1843 4.10526C10.1112 4.03198 10.0526 3.94302 10.0123 3.84392C9.97202 3.74481 9.95083 3.6377 9.95008 3.52925C9.94933 3.42081 9.96904 3.31336 10.008 3.2136C10.0469 3.11385 10.1042 3.02392 10.1763 2.94944C10.2485 2.87497 10.3339 2.81753 10.4272 2.78071C10.5205 2.74389 10.6198 2.72848 10.7188 2.73545C10.8179 2.74241 10.9145 2.7716 11.0028 2.82119C11.091 2.87078 11.169 2.93971 11.2318 3.02368C12.1018 4.03343 12.6824 5.29939 12.902 6.66545C13.1215 8.0315 12.9705 9.43792 12.4674 10.7113C11.9643 11.9846 11.1312 13.0692 10.0709 13.8313C9.01055 14.5934 7.7693 14.9997 6.50022 15Z" fill="black"/>
<path d="M6.50022 5.52632C6.30863 5.52632 6.12489 5.44314 5.98942 5.29508C5.85395 5.14703 5.77784 4.94622 5.77784 4.73684V0.789474C5.77784 0.580092 5.85395 0.379287 5.98942 0.231232C6.12489 0.0831766 6.30863 0 6.50022 0C6.6918 0 6.87554 0.0831766 7.01101 0.231232C7.14648 0.379287 7.22259 0.580092 7.22259 0.789474V4.73684C7.22259 4.94622 7.14648 5.14703 7.01101 5.29508C6.87554 5.44314 6.6918 5.52632 6.50022 5.52632Z" fill="black"/>
</svg>
