<svg width="30" height="15" viewBox="0 0 30 15" fill="none" xmlns="http://www.w3.org/2000/svg">
<path d="M23.1566 8.6618H25.9954C26.2037 8.6618 26.3907 8.55942 26.5086 8.38091C26.6531 8.16222 26.6719 7.8587 26.5603 7.54817L26.537 7.48335L26.4982 7.42729C26.4939 7.42106 26.0618 6.79758 25.6181 6.18215C25.3555 5.81797 25.1395 5.52678 24.9761 5.31668C24.6734 4.92763 24.516 4.74062 24.2464 4.74062H23.1566C22.9037 4.74062 22.6733 4.9011 22.5402 5.16992C22.455 5.34203 22.41 5.55005 22.41 5.77149V7.63087C22.41 7.85232 22.455 8.06035 22.5402 8.23247C22.6732 8.50131 22.9037 8.6618 23.1566 8.6618ZM23.3919 7.63087V5.77149C23.3919 5.77082 23.3919 5.77014 23.3919 5.76947H24.058C24.2998 6.05806 24.8772 6.85173 25.4255 7.63296H23.3919C23.3919 7.63227 23.3919 7.63156 23.3919 7.63087ZM2.68949 3.75113L4.96789 3.75115C5.23903 3.75115 5.45887 3.52082 5.45887 3.23672C5.45887 2.95262 5.23905 2.7223 4.96789 2.7223L2.68949 2.72229C2.41835 2.72229 2.19852 2.95261 2.19852 3.23671C2.19852 3.52081 2.41833 3.75113 2.68949 3.75113ZM5.45887 5.95638C5.45887 5.67228 5.23905 5.44196 4.96789 5.44196L0.490975 5.44194C0.219836 5.44194 0 5.67228 0 5.95636C0 6.24047 0.219813 6.47079 0.490975 6.47079L4.96789 6.4708C5.23903 6.4708 5.45887 6.24047 5.45887 5.95638ZM5.45887 8.67607C5.45887 8.39197 5.23905 8.16165 4.96789 8.16165L2.68949 8.16163C2.41835 8.16163 2.19852 8.39196 2.19852 8.67605C2.19852 8.96016 2.41833 9.19048 2.68949 9.19048L4.96789 9.19049C5.23903 9.19049 5.45887 8.96017 5.45887 8.67607Z" fill="black"/>
<path d="M10.4897 13.6277C10.8705 13.6277 11.1792 13.3043 11.1792 12.9053C11.1792 12.5063 10.8705 12.1828 10.4897 12.1828C10.1089 12.1828 9.8002 12.5063 9.8002 12.9053C9.8002 13.3043 10.1089 13.6277 10.4897 13.6277Z" fill="black"/>
<path d="M24.8349 13.6277C25.2157 13.6277 25.5244 13.3043 25.5244 12.9053C25.5244 12.5063 25.2157 12.1828 24.8349 12.1828C24.454 12.1828 24.1453 12.5063 24.1453 12.9053C24.1453 13.3043 24.454 13.6277 24.8349 13.6277Z" fill="black"/>
<path d="M29.5456 11.1765C29.3112 11.0014 29.0108 10.9025 28.6966 10.8959V7.46197C28.6966 7.22962 28.6009 6.93293 28.4639 6.74043L25.769 2.95563C25.6027 2.72198 25.2801 2.5588 24.9846 2.5588H21.5898V0.807017C21.5898 0.362029 21.2549 0 20.8432 0H6.7318C6.32011 0 5.98518 0.362029 5.98518 0.807017V10.8959C5.67098 10.9025 5.37066 11.0014 5.13626 11.1765C4.84745 11.3922 4.68181 11.7075 4.68181 12.0416V12.2734C4.68181 12.6075 4.84746 12.9228 5.13627 13.1385C5.37899 13.3198 5.69238 13.4197 6.01871 13.4197H8.55154C8.77095 14.3268 9.55668 15 10.4897 15C11.4228 15 12.2085 14.3268 12.4279 13.4197H22.8966C23.1161 14.3268 23.9018 15 24.8349 15C25.7679 15 26.5536 14.3268 26.773 13.4197H28.6631C28.9894 13.4197 29.3028 13.3198 29.5456 13.1385C29.8344 12.9228 30 12.6075 30 12.2734V12.0416C30 11.7075 29.8344 11.3922 29.5456 11.1765ZM24.977 3.58764C24.9835 3.58924 24.9928 3.59291 25.0004 3.59674L27.6758 7.35425C27.6905 7.37778 27.7112 7.43833 27.7147 7.46767V10.8953H25.3981C25.2194 10.8402 25.0304 10.8105 24.8349 10.8105C24.6394 10.8105 24.4504 10.8402 24.2716 10.8953H23.3587L21.5898 10.8921V3.58764L24.977 3.58764ZM12.2557 11.9241H23.0689C22.9946 12.0703 22.9363 12.2267 22.8966 12.3908H12.4279C12.3882 12.2267 12.3299 12.0703 12.2557 11.9241ZM6.96713 1.02884H20.6079V10.884H11.998V10.8953H11.053C10.8742 10.8402 10.6852 10.8105 10.4897 10.8105C10.2942 10.8105 10.1052 10.8402 9.9265 10.8953H8.98143V10.884H6.96713V1.02884ZM5.66376 12.2599V12.0551C5.69086 12.012 5.81751 11.9241 6.01871 11.9241H8.72378C8.6495 12.0703 8.59123 12.2267 8.55154 12.3908H6.01871C5.81749 12.3908 5.69085 12.303 5.66376 12.2599ZM10.4897 13.9712C9.92877 13.9712 9.47241 13.493 9.47241 12.9053C9.47241 12.3175 9.92878 11.8394 10.4897 11.8394C10.6288 11.8394 10.7613 11.8688 10.8822 11.922V11.9241H10.8872C11.2512 12.0866 11.507 12.4652 11.507 12.9053C11.507 13.493 11.0507 13.9712 10.4897 13.9712ZM24.8349 13.9712C24.2739 13.9712 23.8175 13.493 23.8175 12.9053C23.8175 12.3175 24.2739 11.8394 24.8349 11.8394C25.3958 11.8394 25.8522 12.3175 25.8522 12.9053C25.8522 13.493 25.3958 13.9712 24.8349 13.9712ZM29.018 12.2599C28.991 12.3029 28.8643 12.3908 28.6631 12.3908H26.773C26.7334 12.2267 26.6751 12.0703 26.6008 11.9241H27.9368C27.9455 11.9243 27.9553 11.9244 27.9661 11.9244C27.9739 11.9244 27.9822 11.9243 27.9909 11.9241H28.6631C28.8643 11.9241 28.991 12.012 29.018 12.0551L29.018 12.2599Z" fill="black"/>
</svg>
