<svg width="18" height="18" viewBox="0 0 18 18" fill="none" xmlns="http://www.w3.org/2000/svg">
<path d="M11.1005 13.1066C11.1005 13.2669 11.1644 13.4206 11.2781 13.5339C11.3919 13.6473 11.5462 13.7109 11.707 13.7109C11.8679 13.7109 12.0222 13.6473 12.1359 13.5339C12.2497 13.4206 12.3136 13.2669 12.3136 13.1066C12.3136 13.0273 12.2979 12.9487 12.2674 12.8754C12.2369 12.802 12.1922 12.7354 12.1359 12.6793C12.0796 12.6232 12.0127 12.5787 11.9391 12.5483C11.8656 12.5179 11.7867 12.5023 11.707 12.5023C11.6274 12.5023 11.5485 12.5179 11.4749 12.5483C11.4013 12.5787 11.3345 12.6232 11.2781 12.6793C11.2218 12.7354 11.1771 12.802 11.1467 12.8754C11.1162 12.9487 11.1005 13.0273 11.1005 13.1066ZM12.7758 10.8255C13.6291 10.3573 14.0625 9.67844 14.0625 8.80834C14.0625 7.31397 12.8795 6.64453 11.707 6.64453C10.5652 6.64453 9.35156 7.47121 9.35156 9.00372C9.35156 9.15932 9.4136 9.30856 9.52404 9.41859C9.63447 9.52862 9.78425 9.59043 9.94043 9.59043C10.0966 9.59043 10.2464 9.52862 10.3568 9.41859C10.4673 9.30856 10.5293 9.15932 10.5293 9.00372C10.5293 8.18877 11.14 7.81796 11.707 7.81796C12.1469 7.81796 12.8848 7.94645 12.8848 8.80834C12.8848 9.11402 12.8041 9.47074 12.2082 9.79813C11.803 10.0193 11.1182 10.5937 11.1182 11.3383C11.1182 11.4939 11.1802 11.6431 11.2906 11.7531C11.4011 11.8632 11.5509 11.925 11.707 11.925C11.8632 11.925 12.013 11.8632 12.1234 11.7531C12.2339 11.6431 12.2959 11.4939 12.2959 11.3383C12.2959 11.2291 12.5285 10.961 12.7758 10.8255Z" fill="black"/>
<path d="M16.5938 4.50073H12.375V1.40648C12.3746 1.03362 12.2263 0.67615 11.9627 0.412479C11.6991 0.148808 11.3416 0.000468241 10.9688 0H1.40625C1.03339 0.000468241 0.675946 0.148808 0.412318 0.412479C0.14869 0.67615 0.000407844 1.03362 0 1.40648V8.15757C0.000407845 8.53042 0.14869 8.88789 0.412318 9.15156C0.675946 9.41523 1.03339 9.56357 1.40625 9.56404H1.90077L2.91412 11.0119C2.96599 11.086 3.03496 11.1465 3.11519 11.1882C3.19542 11.23 3.28454 11.2518 3.37499 11.2518C3.46544 11.2518 3.55456 11.23 3.63479 11.1882C3.71502 11.1465 3.784 11.086 3.83587 11.0119L4.84921 9.56404H5.625V14.9087C5.62541 15.2815 5.77369 15.639 6.03732 15.9027C6.30095 16.1663 6.65839 16.3147 7.03125 16.3151H13.1508L14.1641 17.763C14.2165 17.8363 14.2857 17.896 14.3659 17.9373C14.446 17.9785 14.5349 18 14.625 18C14.7151 18 14.804 17.9785 14.8841 17.9373C14.9643 17.896 15.0334 17.8363 15.0859 17.7629L16.0992 16.3151H16.5938C16.9666 16.3147 17.3241 16.1663 17.5877 15.9027C17.8513 15.639 17.9996 15.2815 18 14.9087V5.9072C17.9996 5.53435 17.8513 5.17688 17.5877 4.9132C17.3241 4.64953 16.9666 4.50119 16.5938 4.50073ZM4.55631 8.43886C4.46585 8.43886 4.37674 8.46067 4.29651 8.50244C4.21628 8.54421 4.1473 8.60471 4.09543 8.67881L3.375 9.70826L2.65457 8.67881C2.6027 8.60471 2.53372 8.54421 2.45349 8.50244C2.37326 8.46067 2.28415 8.43886 2.19369 8.43886H1.40625C1.33168 8.43876 1.2602 8.40909 1.20747 8.35635C1.15475 8.30362 1.12509 8.23213 1.125 8.15757V1.40648C1.12509 1.33191 1.15475 1.26042 1.20747 1.20769C1.2602 1.15496 1.33168 1.12529 1.40625 1.12518H10.9688C11.0433 1.12529 11.1148 1.15496 11.1675 1.20769C11.2203 1.26042 11.2499 1.33191 11.25 1.40648V4.50073H7.03125C6.65839 4.50119 6.30095 4.64953 6.03732 4.9132C5.77369 5.17688 5.62541 5.53435 5.625 5.9072V8.43886H4.55631ZM16.875 14.9087C16.8749 14.9832 16.8452 15.0547 16.7925 15.1074C16.7398 15.1602 16.6683 15.1898 16.5938 15.1899H15.8063C15.7159 15.1899 15.6267 15.2118 15.5465 15.2535C15.4663 15.2953 15.3973 15.3558 15.3454 15.4299L14.625 16.4593L13.9046 15.4299C13.8527 15.3558 13.7837 15.2953 13.7035 15.2535C13.6233 15.2118 13.5341 15.1899 13.4437 15.1899H7.03125C6.95668 15.1898 6.8852 15.1602 6.83247 15.1074C6.77975 15.0547 6.75009 14.9832 6.75 14.9087V5.9072C6.75009 5.83263 6.77975 5.76115 6.83247 5.70841C6.8852 5.65568 6.95668 5.62601 7.03125 5.62591H16.5938C16.6683 5.62601 16.7398 5.65568 16.7925 5.70841C16.8452 5.76115 16.8749 5.83263 16.875 5.9072V14.9087Z" fill="black"/>
</svg>
